<mxfile host="app.diagrams.net" agent="Mozilla/5.0 (Windows NT 10.0; Win64; x64) AppleWebKit/537.36 (KHTML, like Gecko) Chrome/128.0.0.0 Safari/537.36 Edg/128.0.0.0" version="24.7.14">
  <diagram name="Page-1" id="2Ws1cm-vSjm2WrNsoOPe">
    <mxGraphModel grid="1" page="1" gridSize="10" guides="1" tooltips="1" connect="1" arrows="1" fold="1" pageScale="1" pageWidth="850" pageHeight="1100" math="0" shadow="0">
      <root>
        <mxCell id="0" />
        <mxCell id="1" parent="0" />
        <mxCell id="GUtZIRkIJdK4X_Oaz5W3-1" value="Award" style="ellipse;whiteSpace=wrap;html=1;" vertex="1" parent="1">
          <mxGeometry x="140" y="190" width="120" height="60" as="geometry" />
        </mxCell>
        <mxCell id="GUtZIRkIJdK4X_Oaz5W3-2" value="" style="endArrow=none;html=1;rounded=0;entryX=0.5;entryY=1;entryDx=0;entryDy=0;exitX=0.5;exitY=0;exitDx=0;exitDy=0;" edge="1" parent="1" source="GUtZIRkIJdK4X_Oaz5W3-1" target="GUtZIRkIJdK4X_Oaz5W3-4">
          <mxGeometry width="50" height="50" relative="1" as="geometry">
            <mxPoint x="200" y="190" as="sourcePoint" />
            <mxPoint x="250" y="140" as="targetPoint" />
          </mxGeometry>
        </mxCell>
        <mxCell id="GUtZIRkIJdK4X_Oaz5W3-3" value="" style="endArrow=none;html=1;rounded=0;entryX=0.783;entryY=0.875;entryDx=0;entryDy=0;entryPerimeter=0;exitX=0;exitY=0;exitDx=0;exitDy=0;" edge="1" parent="1" source="GUtZIRkIJdK4X_Oaz5W3-1" target="GUtZIRkIJdK4X_Oaz5W3-5">
          <mxGeometry width="50" height="50" relative="1" as="geometry">
            <mxPoint x="200" y="190" as="sourcePoint" />
            <mxPoint x="140" y="140" as="targetPoint" />
          </mxGeometry>
        </mxCell>
        <mxCell id="GUtZIRkIJdK4X_Oaz5W3-4" value="awardName" style="ellipse;whiteSpace=wrap;html=1;" vertex="1" parent="1">
          <mxGeometry x="150" y="100" width="100" height="60" as="geometry" />
        </mxCell>
        <mxCell id="GUtZIRkIJdK4X_Oaz5W3-5" value="awardID" style="ellipse;whiteSpace=wrap;html=1;fontStyle=1" vertex="1" parent="1">
          <mxGeometry x="30" y="120" width="110" height="60" as="geometry" />
        </mxCell>
        <mxCell id="GUtZIRkIJdK4X_Oaz5W3-6" value="userID" style="ellipse;whiteSpace=wrap;html=1;fontStyle=4" vertex="1" parent="1">
          <mxGeometry x="280" y="120" width="100" height="60" as="geometry" />
        </mxCell>
        <mxCell id="GUtZIRkIJdK4X_Oaz5W3-7" value="" style="endArrow=none;html=1;rounded=0;entryX=0;entryY=1;entryDx=0;entryDy=0;exitX=1;exitY=0;exitDx=0;exitDy=0;" edge="1" parent="1" source="GUtZIRkIJdK4X_Oaz5W3-1" target="GUtZIRkIJdK4X_Oaz5W3-6">
          <mxGeometry width="50" height="50" relative="1" as="geometry">
            <mxPoint x="340" y="360" as="sourcePoint" />
            <mxPoint x="390" y="310" as="targetPoint" />
          </mxGeometry>
        </mxCell>
        <mxCell id="GUtZIRkIJdK4X_Oaz5W3-8" value="User" style="ellipse;whiteSpace=wrap;html=1;" vertex="1" parent="1">
          <mxGeometry x="140" y="470" width="120" height="60" as="geometry" />
        </mxCell>
        <mxCell id="GUtZIRkIJdK4X_Oaz5W3-10" value="userPhoneNumber" style="ellipse;whiteSpace=wrap;html=1;" vertex="1" parent="1">
          <mxGeometry y="591" width="120" height="60" as="geometry" />
        </mxCell>
        <mxCell id="GUtZIRkIJdK4X_Oaz5W3-11" value="userDescription" style="ellipse;whiteSpace=wrap;html=1;" vertex="1" parent="1">
          <mxGeometry x="275" y="591" width="120" height="60" as="geometry" />
        </mxCell>
        <mxCell id="GUtZIRkIJdK4X_Oaz5W3-12" value="userAvatar" style="ellipse;whiteSpace=wrap;html=1;" vertex="1" parent="1">
          <mxGeometry x="303" y="525" width="120" height="60" as="geometry" />
        </mxCell>
        <mxCell id="GUtZIRkIJdK4X_Oaz5W3-13" value="userRoleID" style="ellipse;whiteSpace=wrap;html=1;" vertex="1" parent="1">
          <mxGeometry x="289" y="460" width="120" height="60" as="geometry" />
        </mxCell>
        <mxCell id="GUtZIRkIJdK4X_Oaz5W3-14" value="userPassword" style="ellipse;whiteSpace=wrap;html=1;" vertex="1" parent="1">
          <mxGeometry x="275" y="392" width="120" height="60" as="geometry" />
        </mxCell>
        <mxCell id="GUtZIRkIJdK4X_Oaz5W3-15" value="userAddress" style="ellipse;whiteSpace=wrap;html=1;" vertex="1" parent="1">
          <mxGeometry x="225" y="332" width="120" height="60" as="geometry" />
        </mxCell>
        <mxCell id="GUtZIRkIJdK4X_Oaz5W3-16" value="userID" style="ellipse;whiteSpace=wrap;html=1;fontStyle=1" vertex="1" parent="1">
          <mxGeometry x="70" y="350" width="120" height="60" as="geometry" />
        </mxCell>
        <mxCell id="GUtZIRkIJdK4X_Oaz5W3-17" value="userEmail" style="ellipse;whiteSpace=wrap;html=1;" vertex="1" parent="1">
          <mxGeometry x="-30" y="530" width="120" height="60" as="geometry" />
        </mxCell>
        <mxCell id="GUtZIRkIJdK4X_Oaz5W3-18" value="userDOB" style="ellipse;whiteSpace=wrap;html=1;" vertex="1" parent="1">
          <mxGeometry x="-30" y="468" width="120" height="60" as="geometry" />
        </mxCell>
        <mxCell id="GUtZIRkIJdK4X_Oaz5W3-19" value="userFullName" style="ellipse;whiteSpace=wrap;html=1;" vertex="1" parent="1">
          <mxGeometry y="408" width="120" height="60" as="geometry" />
        </mxCell>
        <mxCell id="GUtZIRkIJdK4X_Oaz5W3-20" value="" style="endArrow=none;html=1;rounded=0;exitX=0.758;exitY=0.083;exitDx=0;exitDy=0;exitPerimeter=0;" edge="1" parent="1" source="GUtZIRkIJdK4X_Oaz5W3-10" target="GUtZIRkIJdK4X_Oaz5W3-8">
          <mxGeometry width="50" height="50" relative="1" as="geometry">
            <mxPoint x="150" y="580" as="sourcePoint" />
            <mxPoint x="200" y="530" as="targetPoint" />
          </mxGeometry>
        </mxCell>
        <mxCell id="GUtZIRkIJdK4X_Oaz5W3-21" value="" style="endArrow=none;html=1;rounded=0;exitX=0.7;exitY=0.067;exitDx=0;exitDy=0;entryX=0;entryY=1;entryDx=0;entryDy=0;exitPerimeter=0;" edge="1" parent="1" source="GUtZIRkIJdK4X_Oaz5W3-8" target="GUtZIRkIJdK4X_Oaz5W3-15">
          <mxGeometry width="50" height="50" relative="1" as="geometry">
            <mxPoint x="240" y="460" as="sourcePoint" />
            <mxPoint x="290" y="410" as="targetPoint" />
          </mxGeometry>
        </mxCell>
        <mxCell id="GUtZIRkIJdK4X_Oaz5W3-23" value="" style="endArrow=none;html=1;rounded=0;entryX=0.692;entryY=0.949;entryDx=0;entryDy=0;exitX=0.292;exitY=0.05;exitDx=0;exitDy=0;exitPerimeter=0;entryPerimeter=0;" edge="1" parent="1" source="GUtZIRkIJdK4X_Oaz5W3-8" target="GUtZIRkIJdK4X_Oaz5W3-16">
          <mxGeometry width="50" height="50" relative="1" as="geometry">
            <mxPoint x="175" y="470" as="sourcePoint" />
            <mxPoint x="225" y="420" as="targetPoint" />
          </mxGeometry>
        </mxCell>
        <mxCell id="GUtZIRkIJdK4X_Oaz5W3-24" value="" style="endArrow=none;html=1;rounded=0;entryX=0.961;entryY=0.699;entryDx=0;entryDy=0;exitX=0;exitY=0;exitDx=0;exitDy=0;entryPerimeter=0;" edge="1" parent="1" source="GUtZIRkIJdK4X_Oaz5W3-8" target="GUtZIRkIJdK4X_Oaz5W3-19">
          <mxGeometry width="50" height="50" relative="1" as="geometry">
            <mxPoint x="85" y="510" as="sourcePoint" />
            <mxPoint x="135" y="460" as="targetPoint" />
          </mxGeometry>
        </mxCell>
        <mxCell id="GUtZIRkIJdK4X_Oaz5W3-25" value="" style="endArrow=none;html=1;rounded=0;exitX=1;exitY=0;exitDx=0;exitDy=0;entryX=0;entryY=0.5;entryDx=0;entryDy=0;" edge="1" parent="1" source="GUtZIRkIJdK4X_Oaz5W3-8" target="GUtZIRkIJdK4X_Oaz5W3-14">
          <mxGeometry width="50" height="50" relative="1" as="geometry">
            <mxPoint x="260" y="490" as="sourcePoint" />
            <mxPoint x="310" y="440" as="targetPoint" />
          </mxGeometry>
        </mxCell>
        <mxCell id="GUtZIRkIJdK4X_Oaz5W3-26" value="" style="endArrow=none;html=1;rounded=0;entryX=0.058;entryY=0.733;entryDx=0;entryDy=0;entryPerimeter=0;exitX=0.976;exitY=0.343;exitDx=0;exitDy=0;exitPerimeter=0;" edge="1" parent="1" source="GUtZIRkIJdK4X_Oaz5W3-17" target="GUtZIRkIJdK4X_Oaz5W3-8">
          <mxGeometry width="50" height="50" relative="1" as="geometry">
            <mxPoint x="80" y="550" as="sourcePoint" />
            <mxPoint x="150" y="510" as="targetPoint" />
          </mxGeometry>
        </mxCell>
        <mxCell id="GUtZIRkIJdK4X_Oaz5W3-27" value="" style="endArrow=none;html=1;rounded=0;exitX=1;exitY=1;exitDx=0;exitDy=0;" edge="1" parent="1" source="GUtZIRkIJdK4X_Oaz5W3-8" target="GUtZIRkIJdK4X_Oaz5W3-12">
          <mxGeometry width="50" height="50" relative="1" as="geometry">
            <mxPoint x="410" y="630" as="sourcePoint" />
            <mxPoint x="460" y="580" as="targetPoint" />
          </mxGeometry>
        </mxCell>
        <mxCell id="GUtZIRkIJdK4X_Oaz5W3-28" value="" style="endArrow=none;html=1;rounded=0;" edge="1" parent="1" source="GUtZIRkIJdK4X_Oaz5W3-11" target="GUtZIRkIJdK4X_Oaz5W3-8">
          <mxGeometry width="50" height="50" relative="1" as="geometry">
            <mxPoint x="420" y="640" as="sourcePoint" />
            <mxPoint x="470" y="590" as="targetPoint" />
          </mxGeometry>
        </mxCell>
        <mxCell id="GUtZIRkIJdK4X_Oaz5W3-29" value="" style="endArrow=none;html=1;rounded=0;entryX=1;entryY=0.5;entryDx=0;entryDy=0;exitX=0;exitY=0.5;exitDx=0;exitDy=0;" edge="1" parent="1" source="GUtZIRkIJdK4X_Oaz5W3-8" target="GUtZIRkIJdK4X_Oaz5W3-18">
          <mxGeometry width="50" height="50" relative="1" as="geometry">
            <mxPoint x="370" y="590" as="sourcePoint" />
            <mxPoint x="420" y="540" as="targetPoint" />
          </mxGeometry>
        </mxCell>
        <mxCell id="GUtZIRkIJdK4X_Oaz5W3-30" value="" style="endArrow=none;html=1;rounded=0;entryX=0;entryY=0.5;entryDx=0;entryDy=0;exitX=1;exitY=0.5;exitDx=0;exitDy=0;" edge="1" parent="1" source="GUtZIRkIJdK4X_Oaz5W3-8" target="GUtZIRkIJdK4X_Oaz5W3-13">
          <mxGeometry width="50" height="50" relative="1" as="geometry">
            <mxPoint x="380" y="600" as="sourcePoint" />
            <mxPoint x="430" y="550" as="targetPoint" />
          </mxGeometry>
        </mxCell>
        <mxCell id="GUtZIRkIJdK4X_Oaz5W3-31" value="Request" style="ellipse;whiteSpace=wrap;html=1;" vertex="1" parent="1">
          <mxGeometry x="-280" y="825" width="120" height="60" as="geometry" />
        </mxCell>
        <mxCell id="GUtZIRkIJdK4X_Oaz5W3-34" value="location" style="ellipse;whiteSpace=wrap;html=1;" vertex="1" parent="1">
          <mxGeometry x="-170" y="910.5" width="120" height="60" as="geometry" />
        </mxCell>
        <mxCell id="GUtZIRkIJdK4X_Oaz5W3-35" value="Status" style="ellipse;whiteSpace=wrap;html=1;" vertex="1" parent="1">
          <mxGeometry x="-130" y="850" width="120" height="60" as="geometry" />
        </mxCell>
        <mxCell id="GUtZIRkIJdK4X_Oaz5W3-36" value="isEmergency" style="ellipse;whiteSpace=wrap;html=1;" vertex="1" parent="1">
          <mxGeometry x="-138" y="784" width="120" height="60" as="geometry" />
        </mxCell>
        <mxCell id="GUtZIRkIJdK4X_Oaz5W3-37" value="attachment" style="ellipse;whiteSpace=wrap;html=1;" vertex="1" parent="1">
          <mxGeometry x="-170" y="720" width="120" height="60" as="geometry" />
        </mxCell>
        <mxCell id="GUtZIRkIJdK4X_Oaz5W3-38" value="requestID" style="ellipse;whiteSpace=wrap;html=1;fontStyle=1" vertex="1" parent="1">
          <mxGeometry x="-350" y="713" width="120" height="60" as="geometry" />
        </mxCell>
        <mxCell id="GUtZIRkIJdK4X_Oaz5W3-39" value="creationDate" style="ellipse;whiteSpace=wrap;html=1;" vertex="1" parent="1">
          <mxGeometry x="-370" y="910.5" width="120" height="60" as="geometry" />
        </mxCell>
        <mxCell id="GUtZIRkIJdK4X_Oaz5W3-40" value="content" style="ellipse;whiteSpace=wrap;html=1;" vertex="1" parent="1">
          <mxGeometry x="-410" y="837.25" width="120" height="60" as="geometry" />
        </mxCell>
        <mxCell id="GUtZIRkIJdK4X_Oaz5W3-41" value="userID" style="ellipse;whiteSpace=wrap;html=1;fontStyle=4" vertex="1" parent="1">
          <mxGeometry x="-410" y="773" width="120" height="60" as="geometry" />
        </mxCell>
        <mxCell id="GUtZIRkIJdK4X_Oaz5W3-43" value="" style="endArrow=none;html=1;rounded=0;exitX=0.746;exitY=0.068;exitDx=0;exitDy=0;entryX=0;entryY=1;entryDx=0;entryDy=0;exitPerimeter=0;" edge="1" parent="1" source="GUtZIRkIJdK4X_Oaz5W3-31" target="GUtZIRkIJdK4X_Oaz5W3-37">
          <mxGeometry width="50" height="50" relative="1" as="geometry">
            <mxPoint x="-180" y="815" as="sourcePoint" />
            <mxPoint x="-130" y="765" as="targetPoint" />
          </mxGeometry>
        </mxCell>
        <mxCell id="GUtZIRkIJdK4X_Oaz5W3-44" value="" style="endArrow=none;html=1;rounded=0;entryX=1;entryY=1;entryDx=0;entryDy=0;exitX=0.292;exitY=0.05;exitDx=0;exitDy=0;exitPerimeter=0;" edge="1" parent="1" source="GUtZIRkIJdK4X_Oaz5W3-31" target="GUtZIRkIJdK4X_Oaz5W3-38">
          <mxGeometry width="50" height="50" relative="1" as="geometry">
            <mxPoint x="-245" y="825" as="sourcePoint" />
            <mxPoint x="-195" y="775" as="targetPoint" />
          </mxGeometry>
        </mxCell>
        <mxCell id="GUtZIRkIJdK4X_Oaz5W3-45" value="" style="endArrow=none;html=1;rounded=0;entryX=1;entryY=0.5;entryDx=0;entryDy=0;exitX=0;exitY=0;exitDx=0;exitDy=0;" edge="1" parent="1" source="GUtZIRkIJdK4X_Oaz5W3-31" target="GUtZIRkIJdK4X_Oaz5W3-41">
          <mxGeometry width="50" height="50" relative="1" as="geometry">
            <mxPoint x="-335" y="865" as="sourcePoint" />
            <mxPoint x="-285" y="815" as="targetPoint" />
          </mxGeometry>
        </mxCell>
        <mxCell id="GUtZIRkIJdK4X_Oaz5W3-46" value="" style="endArrow=none;html=1;rounded=0;exitX=1;exitY=0;exitDx=0;exitDy=0;entryX=0;entryY=0.5;entryDx=0;entryDy=0;" edge="1" parent="1" source="GUtZIRkIJdK4X_Oaz5W3-31" target="GUtZIRkIJdK4X_Oaz5W3-36">
          <mxGeometry width="50" height="50" relative="1" as="geometry">
            <mxPoint x="-160" y="845" as="sourcePoint" />
            <mxPoint x="-110" y="795" as="targetPoint" />
          </mxGeometry>
        </mxCell>
        <mxCell id="GUtZIRkIJdK4X_Oaz5W3-47" value="" style="endArrow=none;html=1;rounded=0;exitX=1;exitY=0;exitDx=0;exitDy=0;entryX=0;entryY=1;entryDx=0;entryDy=0;" edge="1" parent="1" source="GUtZIRkIJdK4X_Oaz5W3-39" target="GUtZIRkIJdK4X_Oaz5W3-31">
          <mxGeometry width="50" height="50" relative="1" as="geometry">
            <mxPoint x="-300" y="935" as="sourcePoint" />
            <mxPoint x="-270" y="865" as="targetPoint" />
          </mxGeometry>
        </mxCell>
        <mxCell id="GUtZIRkIJdK4X_Oaz5W3-48" value="" style="endArrow=none;html=1;rounded=0;exitX=1;exitY=1;exitDx=0;exitDy=0;" edge="1" parent="1" source="GUtZIRkIJdK4X_Oaz5W3-31" target="GUtZIRkIJdK4X_Oaz5W3-34">
          <mxGeometry width="50" height="50" relative="1" as="geometry">
            <mxPoint x="-10" y="985" as="sourcePoint" />
            <mxPoint x="40" y="935" as="targetPoint" />
          </mxGeometry>
        </mxCell>
        <mxCell id="GUtZIRkIJdK4X_Oaz5W3-50" value="" style="endArrow=none;html=1;rounded=0;entryX=1;entryY=0.5;entryDx=0;entryDy=0;exitX=0;exitY=0.5;exitDx=0;exitDy=0;" edge="1" parent="1" source="GUtZIRkIJdK4X_Oaz5W3-31" target="GUtZIRkIJdK4X_Oaz5W3-40">
          <mxGeometry width="50" height="50" relative="1" as="geometry">
            <mxPoint x="-50" y="945" as="sourcePoint" />
            <mxPoint y="895" as="targetPoint" />
          </mxGeometry>
        </mxCell>
        <mxCell id="GUtZIRkIJdK4X_Oaz5W3-51" value="" style="endArrow=none;html=1;rounded=0;entryX=0;entryY=0.5;entryDx=0;entryDy=0;exitX=1;exitY=0.5;exitDx=0;exitDy=0;" edge="1" parent="1" source="GUtZIRkIJdK4X_Oaz5W3-31" target="GUtZIRkIJdK4X_Oaz5W3-35">
          <mxGeometry width="50" height="50" relative="1" as="geometry">
            <mxPoint x="-40" y="955" as="sourcePoint" />
            <mxPoint x="10" y="905" as="targetPoint" />
          </mxGeometry>
        </mxCell>
        <mxCell id="GUtZIRkIJdK4X_Oaz5W3-52" value="ProjectMember" style="ellipse;whiteSpace=wrap;html=1;" vertex="1" parent="1">
          <mxGeometry x="135" y="900" width="120" height="60" as="geometry" />
        </mxCell>
        <mxCell id="GUtZIRkIJdK4X_Oaz5W3-53" value="" style="endArrow=none;html=1;rounded=0;entryX=0.258;entryY=0.883;entryDx=0;entryDy=0;exitX=1;exitY=0;exitDx=0;exitDy=0;entryPerimeter=0;" edge="1" parent="1" source="GUtZIRkIJdK4X_Oaz5W3-52" target="GUtZIRkIJdK4X_Oaz5W3-55">
          <mxGeometry width="50" height="50" relative="1" as="geometry">
            <mxPoint x="195" y="900" as="sourcePoint" />
            <mxPoint x="245" y="850" as="targetPoint" />
          </mxGeometry>
        </mxCell>
        <mxCell id="GUtZIRkIJdK4X_Oaz5W3-54" value="" style="endArrow=none;html=1;rounded=0;entryX=0.783;entryY=0.875;entryDx=0;entryDy=0;entryPerimeter=0;exitX=0;exitY=0;exitDx=0;exitDy=0;" edge="1" parent="1" source="GUtZIRkIJdK4X_Oaz5W3-52" target="GUtZIRkIJdK4X_Oaz5W3-56">
          <mxGeometry width="50" height="50" relative="1" as="geometry">
            <mxPoint x="195" y="900" as="sourcePoint" />
            <mxPoint x="135" y="850" as="targetPoint" />
          </mxGeometry>
        </mxCell>
        <mxCell id="GUtZIRkIJdK4X_Oaz5W3-55" value="&lt;b&gt;&lt;u&gt;projectID&lt;/u&gt;&lt;/b&gt;" style="ellipse;whiteSpace=wrap;html=1;" vertex="1" parent="1">
          <mxGeometry x="245" y="843.25" width="100" height="60" as="geometry" />
        </mxCell>
        <mxCell id="GUtZIRkIJdK4X_Oaz5W3-56" value="userID" style="ellipse;whiteSpace=wrap;html=1;fontStyle=5" vertex="1" parent="1">
          <mxGeometry x="30" y="844" width="110" height="60" as="geometry" />
        </mxCell>
        <mxCell id="GUtZIRkIJdK4X_Oaz5W3-59" value="OrganizationMember" style="ellipse;whiteSpace=wrap;html=1;" vertex="1" parent="1">
          <mxGeometry x="690" y="490" width="120" height="60" as="geometry" />
        </mxCell>
        <mxCell id="GUtZIRkIJdK4X_Oaz5W3-60" value="" style="endArrow=none;html=1;rounded=0;entryX=0.258;entryY=0.883;entryDx=0;entryDy=0;exitX=1;exitY=0;exitDx=0;exitDy=0;entryPerimeter=0;" edge="1" parent="1" source="GUtZIRkIJdK4X_Oaz5W3-59" target="GUtZIRkIJdK4X_Oaz5W3-62">
          <mxGeometry width="50" height="50" relative="1" as="geometry">
            <mxPoint x="750" y="490" as="sourcePoint" />
            <mxPoint x="800" y="440" as="targetPoint" />
          </mxGeometry>
        </mxCell>
        <mxCell id="GUtZIRkIJdK4X_Oaz5W3-61" value="" style="endArrow=none;html=1;rounded=0;entryX=0.783;entryY=0.875;entryDx=0;entryDy=0;entryPerimeter=0;exitX=0;exitY=0;exitDx=0;exitDy=0;" edge="1" parent="1" source="GUtZIRkIJdK4X_Oaz5W3-59" target="GUtZIRkIJdK4X_Oaz5W3-63">
          <mxGeometry width="50" height="50" relative="1" as="geometry">
            <mxPoint x="750" y="490" as="sourcePoint" />
            <mxPoint x="690" y="440" as="targetPoint" />
          </mxGeometry>
        </mxCell>
        <mxCell id="GUtZIRkIJdK4X_Oaz5W3-62" value="&lt;b&gt;&lt;u&gt;organizationID&lt;/u&gt;&lt;/b&gt;" style="ellipse;whiteSpace=wrap;html=1;" vertex="1" parent="1">
          <mxGeometry x="815" y="410" width="100" height="60" as="geometry" />
        </mxCell>
        <mxCell id="GUtZIRkIJdK4X_Oaz5W3-63" value="userID" style="ellipse;whiteSpace=wrap;html=1;fontStyle=5" vertex="1" parent="1">
          <mxGeometry x="580" y="420" width="110" height="60" as="geometry" />
        </mxCell>
        <mxCell id="GUtZIRkIJdK4X_Oaz5W3-122" value="attachment" style="ellipse;whiteSpace=wrap;html=1;" vertex="1" parent="1">
          <mxGeometry x="40" y="1310" width="120" height="60" as="geometry" />
        </mxCell>
        <mxCell id="GUtZIRkIJdK4X_Oaz5W3-124" value="leaderID" style="ellipse;whiteSpace=wrap;html=1;" vertex="1" parent="1">
          <mxGeometry x="245" y="1270" width="120" height="60" as="geometry" />
        </mxCell>
        <mxCell id="GUtZIRkIJdK4X_Oaz5W3-125" value="endTime" style="ellipse;whiteSpace=wrap;html=1;" vertex="1" parent="1">
          <mxGeometry x="260" y="1200" width="120" height="60" as="geometry" />
        </mxCell>
        <mxCell id="GUtZIRkIJdK4X_Oaz5W3-126" value="startTime" style="ellipse;whiteSpace=wrap;html=1;" vertex="1" parent="1">
          <mxGeometry x="300" y="1118" width="120" height="60" as="geometry" />
        </mxCell>
        <mxCell id="GUtZIRkIJdK4X_Oaz5W3-127" value="projectDescription" style="ellipse;whiteSpace=wrap;html=1;" vertex="1" parent="1">
          <mxGeometry x="231" y="1061" width="120" height="60" as="geometry" />
        </mxCell>
        <mxCell id="GUtZIRkIJdK4X_Oaz5W3-128" value="projectID" style="ellipse;whiteSpace=wrap;html=1;fontStyle=1" vertex="1" parent="1">
          <mxGeometry x="-30" y="1048" width="120" height="60" as="geometry" />
        </mxCell>
        <mxCell id="GUtZIRkIJdK4X_Oaz5W3-129" value="projectName" style="ellipse;whiteSpace=wrap;html=1;" vertex="1" parent="1">
          <mxGeometry y="1250" width="120" height="60" as="geometry" />
        </mxCell>
        <mxCell id="GUtZIRkIJdK4X_Oaz5W3-130" value="requestID" style="ellipse;whiteSpace=wrap;html=1;fontStyle=4" vertex="1" parent="1">
          <mxGeometry x="-20" y="1178" width="120" height="60" as="geometry" />
        </mxCell>
        <mxCell id="GUtZIRkIJdK4X_Oaz5W3-131" value="organizationID" style="ellipse;whiteSpace=wrap;html=1;" vertex="1" parent="1">
          <mxGeometry x="-18" y="1115" width="120" height="60" as="geometry" />
        </mxCell>
        <mxCell id="GUtZIRkIJdK4X_Oaz5W3-132" value="" style="endArrow=none;html=1;rounded=0;exitX=0.784;exitY=0.086;exitDx=0;exitDy=0;exitPerimeter=0;" edge="1" parent="1" source="GUtZIRkIJdK4X_Oaz5W3-122" target="GUtZIRkIJdK4X_Oaz5W3-121">
          <mxGeometry width="50" height="50" relative="1" as="geometry">
            <mxPoint x="145.5" y="1260" as="sourcePoint" />
            <mxPoint x="195.5" y="1210" as="targetPoint" />
          </mxGeometry>
        </mxCell>
        <mxCell id="GUtZIRkIJdK4X_Oaz5W3-133" value="" style="endArrow=none;html=1;rounded=0;entryX=0;entryY=1;entryDx=0;entryDy=0;" edge="1" parent="1" source="GUtZIRkIJdK4X_Oaz5W3-121" target="GUtZIRkIJdK4X_Oaz5W3-127">
          <mxGeometry width="50" height="50" relative="1" as="geometry">
            <mxPoint x="235.5" y="1140" as="sourcePoint" />
            <mxPoint x="285.5" y="1090" as="targetPoint" />
          </mxGeometry>
        </mxCell>
        <mxCell id="GUtZIRkIJdK4X_Oaz5W3-134" value="" style="endArrow=none;html=1;rounded=0;entryX=1;entryY=1;entryDx=0;entryDy=0;exitX=0.106;exitY=0.191;exitDx=0;exitDy=0;exitPerimeter=0;" edge="1" parent="1" source="GUtZIRkIJdK4X_Oaz5W3-121" target="GUtZIRkIJdK4X_Oaz5W3-128">
          <mxGeometry width="50" height="50" relative="1" as="geometry">
            <mxPoint x="170.5" y="1150" as="sourcePoint" />
            <mxPoint x="220.5" y="1100" as="targetPoint" />
          </mxGeometry>
        </mxCell>
        <mxCell id="GUtZIRkIJdK4X_Oaz5W3-135" value="" style="endArrow=none;html=1;rounded=0;entryX=1;entryY=0.5;entryDx=0;entryDy=0;" edge="1" parent="1" source="GUtZIRkIJdK4X_Oaz5W3-121" target="GUtZIRkIJdK4X_Oaz5W3-131">
          <mxGeometry width="50" height="50" relative="1" as="geometry">
            <mxPoint x="140" y="1172" as="sourcePoint" />
            <mxPoint x="130.5" y="1140" as="targetPoint" />
          </mxGeometry>
        </mxCell>
        <mxCell id="GUtZIRkIJdK4X_Oaz5W3-136" value="" style="endArrow=none;html=1;rounded=0;exitX=0.984;exitY=0.352;exitDx=0;exitDy=0;entryX=0;entryY=0.5;entryDx=0;entryDy=0;exitPerimeter=0;" edge="1" parent="1" source="GUtZIRkIJdK4X_Oaz5W3-121" target="GUtZIRkIJdK4X_Oaz5W3-126">
          <mxGeometry width="50" height="50" relative="1" as="geometry">
            <mxPoint x="255.5" y="1170" as="sourcePoint" />
            <mxPoint x="305.5" y="1120" as="targetPoint" />
          </mxGeometry>
        </mxCell>
        <mxCell id="GUtZIRkIJdK4X_Oaz5W3-137" value="" style="endArrow=none;html=1;rounded=0;exitX=1;exitY=0;exitDx=0;exitDy=0;entryX=0;entryY=1;entryDx=0;entryDy=0;" edge="1" parent="1" source="GUtZIRkIJdK4X_Oaz5W3-129" target="GUtZIRkIJdK4X_Oaz5W3-121">
          <mxGeometry width="50" height="50" relative="1" as="geometry">
            <mxPoint x="115.5" y="1260" as="sourcePoint" />
            <mxPoint x="145.5" y="1190" as="targetPoint" />
          </mxGeometry>
        </mxCell>
        <mxCell id="GUtZIRkIJdK4X_Oaz5W3-138" value="" style="endArrow=none;html=1;rounded=0;exitX=0.721;exitY=0.944;exitDx=0;exitDy=0;exitPerimeter=0;" edge="1" parent="1" source="GUtZIRkIJdK4X_Oaz5W3-121" target="GUtZIRkIJdK4X_Oaz5W3-124">
          <mxGeometry width="50" height="50" relative="1" as="geometry">
            <mxPoint x="405.5" y="1310" as="sourcePoint" />
            <mxPoint x="455.5" y="1260" as="targetPoint" />
          </mxGeometry>
        </mxCell>
        <mxCell id="GUtZIRkIJdK4X_Oaz5W3-140" value="" style="endArrow=none;html=1;rounded=0;entryX=1;entryY=0.5;entryDx=0;entryDy=0;exitX=0;exitY=0.5;exitDx=0;exitDy=0;" edge="1" parent="1" source="GUtZIRkIJdK4X_Oaz5W3-121" target="GUtZIRkIJdK4X_Oaz5W3-130">
          <mxGeometry width="50" height="50" relative="1" as="geometry">
            <mxPoint x="365.5" y="1270" as="sourcePoint" />
            <mxPoint x="415.5" y="1220" as="targetPoint" />
          </mxGeometry>
        </mxCell>
        <mxCell id="GUtZIRkIJdK4X_Oaz5W3-141" value="" style="endArrow=none;html=1;rounded=0;entryX=0;entryY=0;entryDx=0;entryDy=0;exitX=1;exitY=1;exitDx=0;exitDy=0;" edge="1" parent="1" source="GUtZIRkIJdK4X_Oaz5W3-121" target="GUtZIRkIJdK4X_Oaz5W3-125">
          <mxGeometry width="50" height="50" relative="1" as="geometry">
            <mxPoint x="375.5" y="1280" as="sourcePoint" />
            <mxPoint x="425.5" y="1230" as="targetPoint" />
          </mxGeometry>
        </mxCell>
        <mxCell id="GUtZIRkIJdK4X_Oaz5W3-142" value="" style="endArrow=none;html=1;rounded=0;entryX=1;entryY=0.5;entryDx=0;entryDy=0;" edge="1" parent="1" target="GUtZIRkIJdK4X_Oaz5W3-121">
          <mxGeometry width="50" height="50" relative="1" as="geometry">
            <mxPoint x="140" y="1172" as="sourcePoint" />
            <mxPoint x="70" y="1160" as="targetPoint" />
          </mxGeometry>
        </mxCell>
        <mxCell id="GUtZIRkIJdK4X_Oaz5W3-121" value="Project" style="ellipse;whiteSpace=wrap;html=1;" vertex="1" parent="1">
          <mxGeometry x="135" y="1151" width="120" height="60" as="geometry" />
        </mxCell>
        <mxCell id="GUtZIRkIJdK4X_Oaz5W3-163" value="expectedQuantity" style="ellipse;whiteSpace=wrap;html=1;" vertex="1" parent="1">
          <mxGeometry x="740" y="1250" width="120" height="60" as="geometry" />
        </mxCell>
        <mxCell id="GUtZIRkIJdK4X_Oaz5W3-164" value="unit" style="ellipse;whiteSpace=wrap;html=1;" vertex="1" parent="1">
          <mxGeometry x="740" y="1178" width="120" height="60" as="geometry" />
        </mxCell>
        <mxCell id="GUtZIRkIJdK4X_Oaz5W3-168" value="resourceID" style="ellipse;whiteSpace=wrap;html=1;fontStyle=1" vertex="1" parent="1">
          <mxGeometry x="440" y="1218" width="120" height="60" as="geometry" />
        </mxCell>
        <mxCell id="GUtZIRkIJdK4X_Oaz5W3-169" value="quantity" style="ellipse;whiteSpace=wrap;html=1;" vertex="1" parent="1">
          <mxGeometry x="690" y="1320" width="120" height="60" as="geometry" />
        </mxCell>
        <mxCell id="GUtZIRkIJdK4X_Oaz5W3-170" value="resourceName" style="ellipse;whiteSpace=wrap;html=1;fontStyle=0" vertex="1" parent="1">
          <mxGeometry x="560" y="1330" width="120" height="60" as="geometry" />
        </mxCell>
        <mxCell id="GUtZIRkIJdK4X_Oaz5W3-171" value="projectID" style="ellipse;whiteSpace=wrap;html=1;fontStyle=4" vertex="1" parent="1">
          <mxGeometry x="470" y="1280" width="120" height="60" as="geometry" />
        </mxCell>
        <mxCell id="GUtZIRkIJdK4X_Oaz5W3-172" value="" style="endArrow=none;html=1;rounded=0;exitX=0.03;exitY=0.328;exitDx=0;exitDy=0;exitPerimeter=0;" edge="1" parent="1" source="GUtZIRkIJdK4X_Oaz5W3-163" target="GUtZIRkIJdK4X_Oaz5W3-182">
          <mxGeometry width="50" height="50" relative="1" as="geometry">
            <mxPoint x="608" y="1320" as="sourcePoint" />
            <mxPoint x="658" y="1270" as="targetPoint" />
          </mxGeometry>
        </mxCell>
        <mxCell id="GUtZIRkIJdK4X_Oaz5W3-174" value="" style="endArrow=none;html=1;rounded=0;entryX=1;entryY=0.5;entryDx=0;entryDy=0;exitX=0;exitY=0.5;exitDx=0;exitDy=0;" edge="1" parent="1" source="GUtZIRkIJdK4X_Oaz5W3-182" target="GUtZIRkIJdK4X_Oaz5W3-168">
          <mxGeometry width="50" height="50" relative="1" as="geometry">
            <mxPoint x="633" y="1210" as="sourcePoint" />
            <mxPoint x="683" y="1160" as="targetPoint" />
          </mxGeometry>
        </mxCell>
        <mxCell id="GUtZIRkIJdK4X_Oaz5W3-175" value="" style="endArrow=none;html=1;rounded=0;entryX=1;entryY=0;entryDx=0;entryDy=0;exitX=0;exitY=1;exitDx=0;exitDy=0;" edge="1" parent="1" source="GUtZIRkIJdK4X_Oaz5W3-182" target="GUtZIRkIJdK4X_Oaz5W3-171">
          <mxGeometry width="50" height="50" relative="1" as="geometry">
            <mxPoint x="602.5" y="1232" as="sourcePoint" />
            <mxPoint x="593" y="1200" as="targetPoint" />
          </mxGeometry>
        </mxCell>
        <mxCell id="GUtZIRkIJdK4X_Oaz5W3-177" value="" style="endArrow=none;html=1;rounded=0;entryX=0.701;entryY=0.922;entryDx=0;entryDy=0;entryPerimeter=0;" edge="1" parent="1" source="GUtZIRkIJdK4X_Oaz5W3-169" target="GUtZIRkIJdK4X_Oaz5W3-182">
          <mxGeometry width="50" height="50" relative="1" as="geometry">
            <mxPoint x="578" y="1320" as="sourcePoint" />
            <mxPoint x="608" y="1250" as="targetPoint" />
          </mxGeometry>
        </mxCell>
        <mxCell id="GUtZIRkIJdK4X_Oaz5W3-178" value="" style="endArrow=none;html=1;rounded=0;exitX=0.932;exitY=0.311;exitDx=0;exitDy=0;exitPerimeter=0;" edge="1" parent="1" source="GUtZIRkIJdK4X_Oaz5W3-182" target="GUtZIRkIJdK4X_Oaz5W3-164">
          <mxGeometry width="50" height="50" relative="1" as="geometry">
            <mxPoint x="868" y="1370" as="sourcePoint" />
            <mxPoint x="918" y="1320" as="targetPoint" />
          </mxGeometry>
        </mxCell>
        <mxCell id="GUtZIRkIJdK4X_Oaz5W3-179" value="" style="endArrow=none;html=1;rounded=0;exitX=0.395;exitY=1.015;exitDx=0;exitDy=0;exitPerimeter=0;entryX=0.622;entryY=0.031;entryDx=0;entryDy=0;entryPerimeter=0;" edge="1" parent="1" source="GUtZIRkIJdK4X_Oaz5W3-182" target="GUtZIRkIJdK4X_Oaz5W3-170">
          <mxGeometry width="50" height="50" relative="1" as="geometry">
            <mxPoint x="828" y="1330" as="sourcePoint" />
            <mxPoint x="622.5" y="1349" as="targetPoint" />
          </mxGeometry>
        </mxCell>
        <mxCell id="GUtZIRkIJdK4X_Oaz5W3-181" value="" style="endArrow=none;html=1;rounded=0;entryX=1;entryY=0.5;entryDx=0;entryDy=0;" edge="1" parent="1" target="GUtZIRkIJdK4X_Oaz5W3-182">
          <mxGeometry width="50" height="50" relative="1" as="geometry">
            <mxPoint x="602.5" y="1232" as="sourcePoint" />
            <mxPoint x="532.5" y="1220" as="targetPoint" />
          </mxGeometry>
        </mxCell>
        <mxCell id="GUtZIRkIJdK4X_Oaz5W3-182" value="ProjectResource" style="ellipse;whiteSpace=wrap;html=1;" vertex="1" parent="1">
          <mxGeometry x="597.5" y="1211" width="120" height="60" as="geometry" />
        </mxCell>
        <mxCell id="GUtZIRkIJdK4X_Oaz5W3-197" value="time" style="ellipse;whiteSpace=wrap;html=1;" vertex="1" parent="1">
          <mxGeometry x="805" y="843.25" width="120" height="60" as="geometry" />
        </mxCell>
        <mxCell id="GUtZIRkIJdK4X_Oaz5W3-198" value="moneyTransactionAmout" style="ellipse;whiteSpace=wrap;html=1;" vertex="1" parent="1">
          <mxGeometry x="800" y="773" width="140" height="60" as="geometry" />
        </mxCell>
        <mxCell id="GUtZIRkIJdK4X_Oaz5W3-199" value="transactionID" style="ellipse;whiteSpace=wrap;html=1;fontStyle=1" vertex="1" parent="1">
          <mxGeometry x="430" y="773" width="120" height="60" as="geometry" />
        </mxCell>
        <mxCell id="GUtZIRkIJdK4X_Oaz5W3-200" value="message" style="ellipse;whiteSpace=wrap;html=1;" vertex="1" parent="1">
          <mxGeometry x="765" y="910" width="120" height="60" as="geometry" />
        </mxCell>
        <mxCell id="GUtZIRkIJdK4X_Oaz5W3-201" value="projectID" style="ellipse;whiteSpace=wrap;html=1;fontStyle=4" vertex="1" parent="1">
          <mxGeometry x="480" y="903.25" width="120" height="60" as="geometry" />
        </mxCell>
        <mxCell id="GUtZIRkIJdK4X_Oaz5W3-202" value="userID" style="ellipse;whiteSpace=wrap;html=1;fontStyle=4" vertex="1" parent="1">
          <mxGeometry x="420" y="840" width="120" height="60" as="geometry" />
        </mxCell>
        <mxCell id="GUtZIRkIJdK4X_Oaz5W3-203" value="" style="endArrow=none;html=1;rounded=0;exitX=0;exitY=0.5;exitDx=0;exitDy=0;" edge="1" parent="1" source="GUtZIRkIJdK4X_Oaz5W3-197" target="GUtZIRkIJdK4X_Oaz5W3-210">
          <mxGeometry width="50" height="50" relative="1" as="geometry">
            <mxPoint x="605.5" y="919.25" as="sourcePoint" />
            <mxPoint x="655.5" y="869.25" as="targetPoint" />
          </mxGeometry>
        </mxCell>
        <mxCell id="GUtZIRkIJdK4X_Oaz5W3-204" value="" style="endArrow=none;html=1;rounded=0;entryX=0.969;entryY=0.661;entryDx=0;entryDy=0;entryPerimeter=0;" edge="1" parent="1" source="GUtZIRkIJdK4X_Oaz5W3-210" target="GUtZIRkIJdK4X_Oaz5W3-199">
          <mxGeometry width="50" height="50" relative="1" as="geometry">
            <mxPoint x="630.5" y="809.25" as="sourcePoint" />
            <mxPoint x="490" y="799.25" as="targetPoint" />
          </mxGeometry>
        </mxCell>
        <mxCell id="GUtZIRkIJdK4X_Oaz5W3-205" value="" style="endArrow=none;html=1;rounded=0;exitX=0.038;exitY=0.704;exitDx=0;exitDy=0;exitPerimeter=0;entryX=1;entryY=0.5;entryDx=0;entryDy=0;" edge="1" parent="1" source="GUtZIRkIJdK4X_Oaz5W3-210" target="GUtZIRkIJdK4X_Oaz5W3-202">
          <mxGeometry width="50" height="50" relative="1" as="geometry">
            <mxPoint x="600" y="831.25" as="sourcePoint" />
            <mxPoint x="473" y="879.25" as="targetPoint" />
          </mxGeometry>
        </mxCell>
        <mxCell id="GUtZIRkIJdK4X_Oaz5W3-206" value="" style="endArrow=none;html=1;rounded=0;entryX=0.701;entryY=0.922;entryDx=0;entryDy=0;entryPerimeter=0;" edge="1" parent="1" source="GUtZIRkIJdK4X_Oaz5W3-200" target="GUtZIRkIJdK4X_Oaz5W3-210">
          <mxGeometry width="50" height="50" relative="1" as="geometry">
            <mxPoint x="575.5" y="919.25" as="sourcePoint" />
            <mxPoint x="605.5" y="849.25" as="targetPoint" />
          </mxGeometry>
        </mxCell>
        <mxCell id="GUtZIRkIJdK4X_Oaz5W3-207" value="" style="endArrow=none;html=1;rounded=0;exitX=0.932;exitY=0.311;exitDx=0;exitDy=0;exitPerimeter=0;" edge="1" parent="1" source="GUtZIRkIJdK4X_Oaz5W3-210" target="GUtZIRkIJdK4X_Oaz5W3-198">
          <mxGeometry width="50" height="50" relative="1" as="geometry">
            <mxPoint x="865.5" y="969.25" as="sourcePoint" />
            <mxPoint x="915.5" y="919.25" as="targetPoint" />
          </mxGeometry>
        </mxCell>
        <mxCell id="GUtZIRkIJdK4X_Oaz5W3-208" value="" style="endArrow=none;html=1;rounded=0;exitX=0.283;exitY=0.946;exitDx=0;exitDy=0;exitPerimeter=0;entryX=0.717;entryY=0.045;entryDx=0;entryDy=0;entryPerimeter=0;" edge="1" parent="1" source="GUtZIRkIJdK4X_Oaz5W3-210" target="GUtZIRkIJdK4X_Oaz5W3-201">
          <mxGeometry width="50" height="50" relative="1" as="geometry">
            <mxPoint x="825.5" y="929.25" as="sourcePoint" />
            <mxPoint x="620" y="948.25" as="targetPoint" />
          </mxGeometry>
        </mxCell>
        <mxCell id="GUtZIRkIJdK4X_Oaz5W3-210" value="UserToProjectTransactionHistory" style="ellipse;whiteSpace=wrap;html=1;" vertex="1" parent="1">
          <mxGeometry x="570" y="798.75" width="195" height="101" as="geometry" />
        </mxCell>
        <mxCell id="GUtZIRkIJdK4X_Oaz5W3-211" value="time" style="ellipse;whiteSpace=wrap;html=1;" vertex="1" parent="1">
          <mxGeometry x="930" y="170" width="120" height="60" as="geometry" />
        </mxCell>
        <mxCell id="GUtZIRkIJdK4X_Oaz5W3-212" value="moneyTransactionAmout" style="ellipse;whiteSpace=wrap;html=1;" vertex="1" parent="1">
          <mxGeometry x="860.5" y="80" width="140" height="60" as="geometry" />
        </mxCell>
        <mxCell id="GUtZIRkIJdK4X_Oaz5W3-213" value="transactionID" style="ellipse;whiteSpace=wrap;html=1;fontStyle=1" vertex="1" parent="1">
          <mxGeometry x="627.5" y="80" width="120" height="60" as="geometry" />
        </mxCell>
        <mxCell id="GUtZIRkIJdK4X_Oaz5W3-214" value="message" style="ellipse;whiteSpace=wrap;html=1;" vertex="1" parent="1">
          <mxGeometry x="850" y="260.5" width="120" height="60" as="geometry" />
        </mxCell>
        <mxCell id="GUtZIRkIJdK4X_Oaz5W3-215" value="organization" style="ellipse;whiteSpace=wrap;html=1;fontStyle=4" vertex="1" parent="1">
          <mxGeometry x="600" y="260.5" width="120" height="60" as="geometry" />
        </mxCell>
        <mxCell id="GUtZIRkIJdK4X_Oaz5W3-216" value="userID" style="ellipse;whiteSpace=wrap;html=1;fontStyle=4" vertex="1" parent="1">
          <mxGeometry x="550" y="160" width="120" height="60" as="geometry" />
        </mxCell>
        <mxCell id="GUtZIRkIJdK4X_Oaz5W3-217" value="" style="endArrow=none;html=1;rounded=0;exitX=0;exitY=0.5;exitDx=0;exitDy=0;" edge="1" parent="1" source="GUtZIRkIJdK4X_Oaz5W3-211" target="GUtZIRkIJdK4X_Oaz5W3-223">
          <mxGeometry width="50" height="50" relative="1" as="geometry">
            <mxPoint x="931" y="190" as="sourcePoint" />
            <mxPoint x="775.5" y="220" as="targetPoint" />
          </mxGeometry>
        </mxCell>
        <mxCell id="GUtZIRkIJdK4X_Oaz5W3-218" value="" style="endArrow=none;html=1;rounded=0;exitX=0;exitY=0;exitDx=0;exitDy=0;entryX=0.747;entryY=0.922;entryDx=0;entryDy=0;entryPerimeter=0;" edge="1" parent="1" source="GUtZIRkIJdK4X_Oaz5W3-223" target="GUtZIRkIJdK4X_Oaz5W3-213">
          <mxGeometry width="50" height="50" relative="1" as="geometry">
            <mxPoint x="750.5" y="160" as="sourcePoint" />
            <mxPoint x="610" y="150" as="targetPoint" />
          </mxGeometry>
        </mxCell>
        <mxCell id="GUtZIRkIJdK4X_Oaz5W3-219" value="" style="endArrow=none;html=1;rounded=0;entryX=1;entryY=0.5;entryDx=0;entryDy=0;" edge="1" parent="1" source="GUtZIRkIJdK4X_Oaz5W3-223" target="GUtZIRkIJdK4X_Oaz5W3-216">
          <mxGeometry width="50" height="50" relative="1" as="geometry">
            <mxPoint x="720" y="182" as="sourcePoint" />
            <mxPoint x="593" y="230" as="targetPoint" />
          </mxGeometry>
        </mxCell>
        <mxCell id="GUtZIRkIJdK4X_Oaz5W3-220" value="" style="endArrow=none;html=1;rounded=0;entryX=0.701;entryY=0.922;entryDx=0;entryDy=0;entryPerimeter=0;" edge="1" parent="1" source="GUtZIRkIJdK4X_Oaz5W3-214" target="GUtZIRkIJdK4X_Oaz5W3-223">
          <mxGeometry width="50" height="50" relative="1" as="geometry">
            <mxPoint x="695.5" y="270" as="sourcePoint" />
            <mxPoint x="725.5" y="200" as="targetPoint" />
          </mxGeometry>
        </mxCell>
        <mxCell id="GUtZIRkIJdK4X_Oaz5W3-221" value="" style="endArrow=none;html=1;rounded=0;exitX=0.793;exitY=0.088;exitDx=0;exitDy=0;exitPerimeter=0;" edge="1" parent="1" source="GUtZIRkIJdK4X_Oaz5W3-223" target="GUtZIRkIJdK4X_Oaz5W3-212">
          <mxGeometry width="50" height="50" relative="1" as="geometry">
            <mxPoint x="985.5" y="320" as="sourcePoint" />
            <mxPoint x="1035.5" y="270" as="targetPoint" />
          </mxGeometry>
        </mxCell>
        <mxCell id="GUtZIRkIJdK4X_Oaz5W3-222" value="" style="endArrow=none;html=1;rounded=0;exitX=0;exitY=1;exitDx=0;exitDy=0;entryX=1;entryY=0;entryDx=0;entryDy=0;" edge="1" parent="1" source="GUtZIRkIJdK4X_Oaz5W3-223" target="GUtZIRkIJdK4X_Oaz5W3-215">
          <mxGeometry width="50" height="50" relative="1" as="geometry">
            <mxPoint x="945.5" y="280" as="sourcePoint" />
            <mxPoint x="740" y="299" as="targetPoint" />
          </mxGeometry>
        </mxCell>
        <mxCell id="GUtZIRkIJdK4X_Oaz5W3-223" value="UserToOrganizationTransactionHistory" style="ellipse;whiteSpace=wrap;html=1;" vertex="1" parent="1">
          <mxGeometry x="690" y="150" width="220" height="110.5" as="geometry" />
        </mxCell>
        <mxCell id="GUtZIRkIJdK4X_Oaz5W3-224" value="time" style="ellipse;whiteSpace=wrap;html=1;" vertex="1" parent="1">
          <mxGeometry x="1209" y="1066" width="120" height="60" as="geometry" />
        </mxCell>
        <mxCell id="GUtZIRkIJdK4X_Oaz5W3-225" value="moneyTransactionAmout" style="ellipse;whiteSpace=wrap;html=1;" vertex="1" parent="1">
          <mxGeometry x="1179" y="960" width="140" height="60" as="geometry" />
        </mxCell>
        <mxCell id="GUtZIRkIJdK4X_Oaz5W3-226" value="transactionID" style="ellipse;whiteSpace=wrap;html=1;fontStyle=1" vertex="1" parent="1">
          <mxGeometry x="869" y="978" width="120" height="60" as="geometry" />
        </mxCell>
        <mxCell id="GUtZIRkIJdK4X_Oaz5W3-227" value="message" style="ellipse;whiteSpace=wrap;html=1;" vertex="1" parent="1">
          <mxGeometry x="1151" y="1146" width="120" height="60" as="geometry" />
        </mxCell>
        <mxCell id="GUtZIRkIJdK4X_Oaz5W3-228" value="projectID" style="ellipse;whiteSpace=wrap;html=1;fontStyle=4" vertex="1" parent="1">
          <mxGeometry x="869" y="1136" width="120" height="60" as="geometry" />
        </mxCell>
        <mxCell id="GUtZIRkIJdK4X_Oaz5W3-229" value="organizationID" style="ellipse;whiteSpace=wrap;html=1;fontStyle=4" vertex="1" parent="1">
          <mxGeometry x="829" y="1053.5" width="120" height="60" as="geometry" />
        </mxCell>
        <mxCell id="GUtZIRkIJdK4X_Oaz5W3-230" value="" style="endArrow=none;html=1;rounded=0;exitX=0;exitY=0.5;exitDx=0;exitDy=0;" edge="1" parent="1" source="GUtZIRkIJdK4X_Oaz5W3-224" target="GUtZIRkIJdK4X_Oaz5W3-236">
          <mxGeometry width="50" height="50" relative="1" as="geometry">
            <mxPoint x="1014.5" y="1149" as="sourcePoint" />
            <mxPoint x="1064.5" y="1099" as="targetPoint" />
          </mxGeometry>
        </mxCell>
        <mxCell id="GUtZIRkIJdK4X_Oaz5W3-231" value="" style="endArrow=none;html=1;rounded=0;entryX=0.969;entryY=0.661;entryDx=0;entryDy=0;entryPerimeter=0;" edge="1" parent="1" source="GUtZIRkIJdK4X_Oaz5W3-236" target="GUtZIRkIJdK4X_Oaz5W3-226">
          <mxGeometry width="50" height="50" relative="1" as="geometry">
            <mxPoint x="1039.5" y="1039" as="sourcePoint" />
            <mxPoint x="899" y="1029" as="targetPoint" />
          </mxGeometry>
        </mxCell>
        <mxCell id="GUtZIRkIJdK4X_Oaz5W3-232" value="" style="endArrow=none;html=1;rounded=0;exitX=0;exitY=0.5;exitDx=0;exitDy=0;entryX=1;entryY=0.5;entryDx=0;entryDy=0;" edge="1" parent="1" source="GUtZIRkIJdK4X_Oaz5W3-236" target="GUtZIRkIJdK4X_Oaz5W3-229">
          <mxGeometry width="50" height="50" relative="1" as="geometry">
            <mxPoint x="1009" y="1061" as="sourcePoint" />
            <mxPoint x="882" y="1109" as="targetPoint" />
          </mxGeometry>
        </mxCell>
        <mxCell id="GUtZIRkIJdK4X_Oaz5W3-233" value="" style="endArrow=none;html=1;rounded=0;entryX=0.701;entryY=0.922;entryDx=0;entryDy=0;entryPerimeter=0;" edge="1" parent="1" source="GUtZIRkIJdK4X_Oaz5W3-227" target="GUtZIRkIJdK4X_Oaz5W3-236">
          <mxGeometry width="50" height="50" relative="1" as="geometry">
            <mxPoint x="984.5" y="1149" as="sourcePoint" />
            <mxPoint x="1014.5" y="1079" as="targetPoint" />
          </mxGeometry>
        </mxCell>
        <mxCell id="GUtZIRkIJdK4X_Oaz5W3-234" value="" style="endArrow=none;html=1;rounded=0;exitX=0.932;exitY=0.311;exitDx=0;exitDy=0;exitPerimeter=0;entryX=0;entryY=1;entryDx=0;entryDy=0;" edge="1" parent="1" target="GUtZIRkIJdK4X_Oaz5W3-225">
          <mxGeometry width="50" height="50" relative="1" as="geometry">
            <mxPoint x="1163.9999999999998" y="1049.73" as="sourcePoint" />
            <mxPoint x="1199" y="1008" as="targetPoint" />
          </mxGeometry>
        </mxCell>
        <mxCell id="GUtZIRkIJdK4X_Oaz5W3-235" value="" style="endArrow=none;html=1;rounded=0;exitX=0;exitY=1;exitDx=0;exitDy=0;entryX=0.622;entryY=0.031;entryDx=0;entryDy=0;entryPerimeter=0;" edge="1" parent="1" source="GUtZIRkIJdK4X_Oaz5W3-236" target="GUtZIRkIJdK4X_Oaz5W3-228">
          <mxGeometry width="50" height="50" relative="1" as="geometry">
            <mxPoint x="1234.5" y="1159" as="sourcePoint" />
            <mxPoint x="1029" y="1178" as="targetPoint" />
          </mxGeometry>
        </mxCell>
        <mxCell id="GUtZIRkIJdK4X_Oaz5W3-236" value="OrganizationToProjectTransactionHistory" style="ellipse;whiteSpace=wrap;html=1;" vertex="1" parent="1">
          <mxGeometry x="969" y="1028.5" width="230" height="110" as="geometry" />
        </mxCell>
        <mxCell id="GUtZIRkIJdK4X_Oaz5W3-237" value="Organization" style="ellipse;whiteSpace=wrap;html=1;" vertex="1" parent="1">
          <mxGeometry x="1170" y="591" width="120" height="60" as="geometry" />
        </mxCell>
        <mxCell id="GUtZIRkIJdK4X_Oaz5W3-240" value="ceoID" style="ellipse;whiteSpace=wrap;html=1;" vertex="1" parent="1">
          <mxGeometry x="1305" y="701" width="120" height="60" as="geometry" />
        </mxCell>
        <mxCell id="GUtZIRkIJdK4X_Oaz5W3-241" value="shutdownDay" style="ellipse;whiteSpace=wrap;html=1;" vertex="1" parent="1">
          <mxGeometry x="1333" y="631" width="120" height="60" as="geometry" />
        </mxCell>
        <mxCell id="GUtZIRkIJdK4X_Oaz5W3-242" value="startTime" style="ellipse;whiteSpace=wrap;html=1;" vertex="1" parent="1">
          <mxGeometry x="1333" y="561" width="120" height="60" as="geometry" />
        </mxCell>
        <mxCell id="GUtZIRkIJdK4X_Oaz5W3-243" value="attachment" style="ellipse;whiteSpace=wrap;html=1;" vertex="1" parent="1">
          <mxGeometry x="1333" y="481" width="120" height="60" as="geometry" />
        </mxCell>
        <mxCell id="GUtZIRkIJdK4X_Oaz5W3-244" value="organizationID" style="ellipse;whiteSpace=wrap;html=1;fontStyle=1" vertex="1" parent="1">
          <mxGeometry x="1000.5" y="481" width="120" height="60" as="geometry" />
        </mxCell>
        <mxCell id="GUtZIRkIJdK4X_Oaz5W3-245" value="userEmail" style="ellipse;whiteSpace=wrap;html=1;" vertex="1" parent="1">
          <mxGeometry x="1019" y="701" width="120" height="60" as="geometry" />
        </mxCell>
        <mxCell id="GUtZIRkIJdK4X_Oaz5W3-246" value="organizationDescription" style="ellipse;whiteSpace=wrap;html=1;" vertex="1" parent="1">
          <mxGeometry x="990" y="621" width="141" height="60" as="geometry" />
        </mxCell>
        <mxCell id="GUtZIRkIJdK4X_Oaz5W3-247" value="organizationName" style="ellipse;whiteSpace=wrap;html=1;" vertex="1" parent="1">
          <mxGeometry x="1000.5" y="551" width="120" height="60" as="geometry" />
        </mxCell>
        <mxCell id="GUtZIRkIJdK4X_Oaz5W3-249" value="" style="endArrow=none;html=1;rounded=0;exitX=0.7;exitY=0.067;exitDx=0;exitDy=0;entryX=0;entryY=1;entryDx=0;entryDy=0;exitPerimeter=0;" edge="1" parent="1" source="GUtZIRkIJdK4X_Oaz5W3-237" target="GUtZIRkIJdK4X_Oaz5W3-243">
          <mxGeometry width="50" height="50" relative="1" as="geometry">
            <mxPoint x="1270" y="581" as="sourcePoint" />
            <mxPoint x="1320" y="531" as="targetPoint" />
          </mxGeometry>
        </mxCell>
        <mxCell id="GUtZIRkIJdK4X_Oaz5W3-250" value="" style="endArrow=none;html=1;rounded=0;entryX=1;entryY=1;entryDx=0;entryDy=0;exitX=0.292;exitY=0.05;exitDx=0;exitDy=0;exitPerimeter=0;" edge="1" parent="1" source="GUtZIRkIJdK4X_Oaz5W3-237" target="GUtZIRkIJdK4X_Oaz5W3-244">
          <mxGeometry width="50" height="50" relative="1" as="geometry">
            <mxPoint x="1205" y="591" as="sourcePoint" />
            <mxPoint x="1255" y="541" as="targetPoint" />
          </mxGeometry>
        </mxCell>
        <mxCell id="GUtZIRkIJdK4X_Oaz5W3-251" value="" style="endArrow=none;html=1;rounded=0;entryX=1;entryY=0.5;entryDx=0;entryDy=0;exitX=0;exitY=0;exitDx=0;exitDy=0;" edge="1" parent="1" source="GUtZIRkIJdK4X_Oaz5W3-237" target="GUtZIRkIJdK4X_Oaz5W3-247">
          <mxGeometry width="50" height="50" relative="1" as="geometry">
            <mxPoint x="1115" y="631" as="sourcePoint" />
            <mxPoint x="1165" y="581" as="targetPoint" />
          </mxGeometry>
        </mxCell>
        <mxCell id="GUtZIRkIJdK4X_Oaz5W3-252" value="" style="endArrow=none;html=1;rounded=0;exitX=1;exitY=0;exitDx=0;exitDy=0;entryX=0;entryY=0.5;entryDx=0;entryDy=0;" edge="1" parent="1" source="GUtZIRkIJdK4X_Oaz5W3-237" target="GUtZIRkIJdK4X_Oaz5W3-242">
          <mxGeometry width="50" height="50" relative="1" as="geometry">
            <mxPoint x="1290" y="611" as="sourcePoint" />
            <mxPoint x="1340" y="561" as="targetPoint" />
          </mxGeometry>
        </mxCell>
        <mxCell id="GUtZIRkIJdK4X_Oaz5W3-253" value="" style="endArrow=none;html=1;rounded=0;exitX=1;exitY=0;exitDx=0;exitDy=0;entryX=0;entryY=1;entryDx=0;entryDy=0;" edge="1" parent="1" source="GUtZIRkIJdK4X_Oaz5W3-245" target="GUtZIRkIJdK4X_Oaz5W3-237">
          <mxGeometry width="50" height="50" relative="1" as="geometry">
            <mxPoint x="1150" y="701" as="sourcePoint" />
            <mxPoint x="1180" y="631" as="targetPoint" />
          </mxGeometry>
        </mxCell>
        <mxCell id="GUtZIRkIJdK4X_Oaz5W3-254" value="" style="endArrow=none;html=1;rounded=0;exitX=1;exitY=1;exitDx=0;exitDy=0;" edge="1" parent="1" source="GUtZIRkIJdK4X_Oaz5W3-237" target="GUtZIRkIJdK4X_Oaz5W3-240">
          <mxGeometry width="50" height="50" relative="1" as="geometry">
            <mxPoint x="1440" y="751" as="sourcePoint" />
            <mxPoint x="1490" y="701" as="targetPoint" />
          </mxGeometry>
        </mxCell>
        <mxCell id="GUtZIRkIJdK4X_Oaz5W3-256" value="" style="endArrow=none;html=1;rounded=0;entryX=1;entryY=0.5;entryDx=0;entryDy=0;exitX=0;exitY=0.5;exitDx=0;exitDy=0;" edge="1" parent="1" source="GUtZIRkIJdK4X_Oaz5W3-237" target="GUtZIRkIJdK4X_Oaz5W3-246">
          <mxGeometry width="50" height="50" relative="1" as="geometry">
            <mxPoint x="1400" y="711" as="sourcePoint" />
            <mxPoint x="1450" y="661" as="targetPoint" />
          </mxGeometry>
        </mxCell>
        <mxCell id="GUtZIRkIJdK4X_Oaz5W3-257" value="" style="endArrow=none;html=1;rounded=0;entryX=0;entryY=0.5;entryDx=0;entryDy=0;exitX=0.982;exitY=0.666;exitDx=0;exitDy=0;exitPerimeter=0;" edge="1" parent="1" source="GUtZIRkIJdK4X_Oaz5W3-237" target="GUtZIRkIJdK4X_Oaz5W3-241">
          <mxGeometry width="50" height="50" relative="1" as="geometry">
            <mxPoint x="1410" y="721" as="sourcePoint" />
            <mxPoint x="1460" y="671" as="targetPoint" />
          </mxGeometry>
        </mxCell>
        <mxCell id="GUtZIRkIJdK4X_Oaz5W3-272" value="expectedQuantity" style="ellipse;whiteSpace=wrap;html=1;" vertex="1" parent="1">
          <mxGeometry x="1430" y="182" width="120" height="60" as="geometry" />
        </mxCell>
        <mxCell id="GUtZIRkIJdK4X_Oaz5W3-273" value="unit" style="ellipse;whiteSpace=wrap;html=1;" vertex="1" parent="1">
          <mxGeometry x="1393" y="120" width="120" height="60" as="geometry" />
        </mxCell>
        <mxCell id="GUtZIRkIJdK4X_Oaz5W3-274" value="resourceID" style="ellipse;whiteSpace=wrap;html=1;fontStyle=1" vertex="1" parent="1">
          <mxGeometry x="1139" y="140" width="120" height="60" as="geometry" />
        </mxCell>
        <mxCell id="GUtZIRkIJdK4X_Oaz5W3-275" value="quantity" style="ellipse;whiteSpace=wrap;html=1;" vertex="1" parent="1">
          <mxGeometry x="1430" y="252" width="120" height="60" as="geometry" />
        </mxCell>
        <mxCell id="GUtZIRkIJdK4X_Oaz5W3-276" value="resourceName" style="ellipse;whiteSpace=wrap;html=1;fontStyle=0" vertex="1" parent="1">
          <mxGeometry x="1131" y="278" width="120" height="60" as="geometry" />
        </mxCell>
        <mxCell id="GUtZIRkIJdK4X_Oaz5W3-277" value="organizationID" style="ellipse;whiteSpace=wrap;html=1;fontStyle=4" vertex="1" parent="1">
          <mxGeometry x="1110" y="212" width="120" height="60" as="geometry" />
        </mxCell>
        <mxCell id="GUtZIRkIJdK4X_Oaz5W3-278" value="" style="endArrow=none;html=1;rounded=0;exitX=0;exitY=0.5;exitDx=0;exitDy=0;" edge="1" parent="1" source="GUtZIRkIJdK4X_Oaz5W3-272" target="GUtZIRkIJdK4X_Oaz5W3-285">
          <mxGeometry width="50" height="50" relative="1" as="geometry">
            <mxPoint x="1276.5" y="322.5" as="sourcePoint" />
            <mxPoint x="1326.5" y="272.5" as="targetPoint" />
          </mxGeometry>
        </mxCell>
        <mxCell id="GUtZIRkIJdK4X_Oaz5W3-279" value="" style="endArrow=none;html=1;rounded=0;entryX=1;entryY=1;entryDx=0;entryDy=0;exitX=0;exitY=0;exitDx=0;exitDy=0;" edge="1" parent="1" source="GUtZIRkIJdK4X_Oaz5W3-285" target="GUtZIRkIJdK4X_Oaz5W3-274">
          <mxGeometry width="50" height="50" relative="1" as="geometry">
            <mxPoint x="1301.5" y="212.5" as="sourcePoint" />
            <mxPoint x="1351.5" y="162.5" as="targetPoint" />
          </mxGeometry>
        </mxCell>
        <mxCell id="GUtZIRkIJdK4X_Oaz5W3-280" value="" style="endArrow=none;html=1;rounded=0;entryX=1;entryY=0.5;entryDx=0;entryDy=0;" edge="1" parent="1" source="GUtZIRkIJdK4X_Oaz5W3-285" target="GUtZIRkIJdK4X_Oaz5W3-277">
          <mxGeometry width="50" height="50" relative="1" as="geometry">
            <mxPoint x="1271" y="234.5" as="sourcePoint" />
            <mxPoint x="1261.5" y="202.5" as="targetPoint" />
          </mxGeometry>
        </mxCell>
        <mxCell id="GUtZIRkIJdK4X_Oaz5W3-281" value="" style="endArrow=none;html=1;rounded=0;entryX=0.9;entryY=0.764;entryDx=0;entryDy=0;entryPerimeter=0;" edge="1" parent="1" source="GUtZIRkIJdK4X_Oaz5W3-275" target="GUtZIRkIJdK4X_Oaz5W3-285">
          <mxGeometry width="50" height="50" relative="1" as="geometry">
            <mxPoint x="1246.5" y="322.5" as="sourcePoint" />
            <mxPoint x="1276.5" y="252.5" as="targetPoint" />
          </mxGeometry>
        </mxCell>
        <mxCell id="GUtZIRkIJdK4X_Oaz5W3-282" value="" style="endArrow=none;html=1;rounded=0;exitX=1;exitY=0;exitDx=0;exitDy=0;entryX=0;entryY=1;entryDx=0;entryDy=0;" edge="1" parent="1" source="GUtZIRkIJdK4X_Oaz5W3-285" target="GUtZIRkIJdK4X_Oaz5W3-273">
          <mxGeometry width="50" height="50" relative="1" as="geometry">
            <mxPoint x="1536.5" y="372.5" as="sourcePoint" />
            <mxPoint x="1586.5" y="322.5" as="targetPoint" />
          </mxGeometry>
        </mxCell>
        <mxCell id="GUtZIRkIJdK4X_Oaz5W3-283" value="" style="endArrow=none;html=1;rounded=0;exitX=0;exitY=1;exitDx=0;exitDy=0;entryX=1;entryY=0;entryDx=0;entryDy=0;" edge="1" parent="1" source="GUtZIRkIJdK4X_Oaz5W3-285" target="GUtZIRkIJdK4X_Oaz5W3-276">
          <mxGeometry width="50" height="50" relative="1" as="geometry">
            <mxPoint x="1496.5" y="332.5" as="sourcePoint" />
            <mxPoint x="1291" y="351.5" as="targetPoint" />
          </mxGeometry>
        </mxCell>
        <mxCell id="GUtZIRkIJdK4X_Oaz5W3-284" value="" style="endArrow=none;html=1;rounded=0;entryX=1;entryY=0.5;entryDx=0;entryDy=0;" edge="1" parent="1" target="GUtZIRkIJdK4X_Oaz5W3-285">
          <mxGeometry width="50" height="50" relative="1" as="geometry">
            <mxPoint x="1271" y="234.5" as="sourcePoint" />
            <mxPoint x="1201" y="222.5" as="targetPoint" />
          </mxGeometry>
        </mxCell>
        <mxCell id="GUtZIRkIJdK4X_Oaz5W3-285" value="OrganizationResource" style="ellipse;whiteSpace=wrap;html=1;" vertex="1" parent="1">
          <mxGeometry x="1259" y="212" width="134" height="60" as="geometry" />
        </mxCell>
        <mxCell id="GUtZIRkIJdK4X_Oaz5W3-286" value="Donator" style="ellipse;whiteSpace=wrap;html=1;" vertex="1" parent="1">
          <mxGeometry x="1266" y="106.5" width="120" height="60" as="geometry" />
        </mxCell>
        <mxCell id="GUtZIRkIJdK4X_Oaz5W3-288" value="" style="endArrow=none;html=1;rounded=0;exitX=0.5;exitY=0;exitDx=0;exitDy=0;entryX=0.5;entryY=1;entryDx=0;entryDy=0;" edge="1" parent="1" source="GUtZIRkIJdK4X_Oaz5W3-285" target="GUtZIRkIJdK4X_Oaz5W3-286">
          <mxGeometry width="50" height="50" relative="1" as="geometry">
            <mxPoint x="1570" y="241" as="sourcePoint" />
            <mxPoint x="1787.5" y="341.5" as="targetPoint" />
          </mxGeometry>
        </mxCell>
        <mxCell id="GUtZIRkIJdK4X_Oaz5W3-289" value="contentTransaction" style="ellipse;whiteSpace=wrap;html=1;" vertex="1" parent="1">
          <mxGeometry x="1420" y="322" width="120" height="60" as="geometry" />
        </mxCell>
        <mxCell id="GUtZIRkIJdK4X_Oaz5W3-291" value="" style="endArrow=none;html=1;rounded=0;exitX=0.705;exitY=0.967;exitDx=0;exitDy=0;entryX=0;entryY=0;entryDx=0;entryDy=0;exitPerimeter=0;" edge="1" parent="1" source="GUtZIRkIJdK4X_Oaz5W3-285" target="GUtZIRkIJdK4X_Oaz5W3-289">
          <mxGeometry width="50" height="50" relative="1" as="geometry">
            <mxPoint x="1389" y="242" as="sourcePoint" />
            <mxPoint x="1606.5" y="342.5" as="targetPoint" />
          </mxGeometry>
        </mxCell>
        <mxCell id="GUtZIRkIJdK4X_Oaz5W3-292" value="" style="endArrow=none;html=1;rounded=0;entryX=0.5;entryY=1;entryDx=0;entryDy=0;exitX=0.5;exitY=0;exitDx=0;exitDy=0;" edge="1" parent="1" source="GUtZIRkIJdK4X_Oaz5W3-8" target="GUtZIRkIJdK4X_Oaz5W3-1">
          <mxGeometry width="50" height="50" relative="1" as="geometry">
            <mxPoint x="210" y="410" as="sourcePoint" />
            <mxPoint x="260" y="360" as="targetPoint" />
          </mxGeometry>
        </mxCell>
        <mxCell id="GUtZIRkIJdK4X_Oaz5W3-293" value="n" style="text;html=1;align=center;verticalAlign=middle;resizable=0;points=[];autosize=1;strokeColor=none;fillColor=none;" vertex="1" parent="1">
          <mxGeometry x="195" y="248" width="30" height="30" as="geometry" />
        </mxCell>
        <mxCell id="GUtZIRkIJdK4X_Oaz5W3-294" value="1" style="text;html=1;align=center;verticalAlign=middle;resizable=0;points=[];autosize=1;strokeColor=none;fillColor=none;" vertex="1" parent="1">
          <mxGeometry x="195" y="438" width="30" height="30" as="geometry" />
        </mxCell>
        <mxCell id="GUtZIRkIJdK4X_Oaz5W3-297" value="&lt;div&gt;1&lt;/div&gt;" style="text;html=1;align=center;verticalAlign=middle;resizable=0;points=[];autosize=1;strokeColor=none;fillColor=none;" vertex="1" parent="1">
          <mxGeometry x="170" y="525" width="30" height="30" as="geometry" />
        </mxCell>
        <mxCell id="GUtZIRkIJdK4X_Oaz5W3-298" value="n" style="text;html=1;align=center;verticalAlign=middle;resizable=0;points=[];autosize=1;strokeColor=none;fillColor=none;" vertex="1" parent="1">
          <mxGeometry x="-226" y="798" width="30" height="30" as="geometry" />
        </mxCell>
        <mxCell id="GUtZIRkIJdK4X_Oaz5W3-300" value="" style="endArrow=none;html=1;rounded=0;entryX=0.5;entryY=1;entryDx=0;entryDy=0;exitX=0.5;exitY=0;exitDx=0;exitDy=0;" edge="1" parent="1" source="GUtZIRkIJdK4X_Oaz5W3-31" target="GUtZIRkIJdK4X_Oaz5W3-8">
          <mxGeometry width="50" height="50" relative="1" as="geometry">
            <mxPoint x="20" y="660" as="sourcePoint" />
            <mxPoint x="70" y="610" as="targetPoint" />
            <Array as="points">
              <mxPoint x="-220" y="690" />
              <mxPoint x="100" y="690" />
            </Array>
          </mxGeometry>
        </mxCell>
        <mxCell id="GUtZIRkIJdK4X_Oaz5W3-303" value="" style="endArrow=none;html=1;rounded=0;exitX=0.5;exitY=1;exitDx=0;exitDy=0;entryX=0.5;entryY=0;entryDx=0;entryDy=0;" edge="1" parent="1" source="GUtZIRkIJdK4X_Oaz5W3-31" target="GUtZIRkIJdK4X_Oaz5W3-121">
          <mxGeometry width="50" height="50" relative="1" as="geometry">
            <mxPoint x="-20" y="1030" as="sourcePoint" />
            <mxPoint x="30" y="980" as="targetPoint" />
            <Array as="points">
              <mxPoint x="-220" y="1030" />
              <mxPoint x="60" y="1030" />
            </Array>
          </mxGeometry>
        </mxCell>
        <mxCell id="GUtZIRkIJdK4X_Oaz5W3-304" value="1" style="text;html=1;align=center;verticalAlign=middle;resizable=0;points=[];autosize=1;strokeColor=none;fillColor=none;" vertex="1" parent="1">
          <mxGeometry x="-225" y="878" width="30" height="30" as="geometry" />
        </mxCell>
        <mxCell id="GUtZIRkIJdK4X_Oaz5W3-305" value="1" style="text;html=1;align=center;verticalAlign=middle;resizable=0;points=[];autosize=1;strokeColor=none;fillColor=none;" vertex="1" parent="1">
          <mxGeometry x="160" y="1130" width="30" height="30" as="geometry" />
        </mxCell>
        <mxCell id="GUtZIRkIJdK4X_Oaz5W3-306" value="" style="endArrow=none;html=1;rounded=0;exitX=0.5;exitY=0;exitDx=0;exitDy=0;entryX=0.5;entryY=1;entryDx=0;entryDy=0;" edge="1" parent="1" source="GUtZIRkIJdK4X_Oaz5W3-121" target="GUtZIRkIJdK4X_Oaz5W3-52">
          <mxGeometry width="50" height="50" relative="1" as="geometry">
            <mxPoint x="130" y="1020" as="sourcePoint" />
            <mxPoint x="180" y="970" as="targetPoint" />
          </mxGeometry>
        </mxCell>
        <mxCell id="GUtZIRkIJdK4X_Oaz5W3-307" value="1" style="text;html=1;align=center;verticalAlign=middle;resizable=0;points=[];autosize=1;strokeColor=none;fillColor=none;" vertex="1" parent="1">
          <mxGeometry x="175" y="1108" width="30" height="30" as="geometry" />
        </mxCell>
        <mxCell id="GUtZIRkIJdK4X_Oaz5W3-309" value="n" style="text;html=1;align=center;verticalAlign=middle;resizable=0;points=[];autosize=1;strokeColor=none;fillColor=none;" vertex="1" parent="1">
          <mxGeometry x="171" y="957" width="30" height="30" as="geometry" />
        </mxCell>
        <mxCell id="GUtZIRkIJdK4X_Oaz5W3-310" value="" style="endArrow=none;html=1;rounded=0;entryX=0.5;entryY=1;entryDx=0;entryDy=0;exitX=0.5;exitY=0;exitDx=0;exitDy=0;" edge="1" parent="1" source="GUtZIRkIJdK4X_Oaz5W3-52" target="GUtZIRkIJdK4X_Oaz5W3-8">
          <mxGeometry width="50" height="50" relative="1" as="geometry">
            <mxPoint x="130" y="790" as="sourcePoint" />
            <mxPoint x="180" y="740" as="targetPoint" />
          </mxGeometry>
        </mxCell>
        <mxCell id="GUtZIRkIJdK4X_Oaz5W3-311" value="n" style="text;html=1;align=center;verticalAlign=middle;resizable=0;points=[];autosize=1;strokeColor=none;fillColor=none;" vertex="1" parent="1">
          <mxGeometry x="188" y="874" width="30" height="30" as="geometry" />
        </mxCell>
        <mxCell id="GUtZIRkIJdK4X_Oaz5W3-312" value="1" style="text;html=1;align=center;verticalAlign=middle;resizable=0;points=[];autosize=1;strokeColor=none;fillColor=none;" vertex="1" parent="1">
          <mxGeometry x="179" y="545" width="30" height="30" as="geometry" />
        </mxCell>
        <mxCell id="GUtZIRkIJdK4X_Oaz5W3-313" value="" style="endArrow=none;html=1;rounded=0;entryX=0.5;entryY=0;entryDx=0;entryDy=0;exitX=0.5;exitY=1;exitDx=0;exitDy=0;" edge="1" parent="1" source="GUtZIRkIJdK4X_Oaz5W3-8" target="GUtZIRkIJdK4X_Oaz5W3-210">
          <mxGeometry width="50" height="50" relative="1" as="geometry">
            <mxPoint x="195" y="530" as="sourcePoint" />
            <mxPoint x="782.5" y="799.5" as="targetPoint" />
            <Array as="points">
              <mxPoint x="290" y="690" />
              <mxPoint x="668" y="680" />
            </Array>
          </mxGeometry>
        </mxCell>
        <mxCell id="GUtZIRkIJdK4X_Oaz5W3-314" value="1" style="text;html=1;align=center;verticalAlign=middle;resizable=0;points=[];autosize=1;strokeColor=none;fillColor=none;" vertex="1" parent="1">
          <mxGeometry x="640" y="768.75" width="30" height="30" as="geometry" />
        </mxCell>
        <mxCell id="GUtZIRkIJdK4X_Oaz5W3-315" value="1" style="text;html=1;align=center;verticalAlign=middle;resizable=0;points=[];autosize=1;strokeColor=none;fillColor=none;" vertex="1" parent="1">
          <mxGeometry x="201" y="525" width="30" height="30" as="geometry" />
        </mxCell>
        <mxCell id="GUtZIRkIJdK4X_Oaz5W3-316" value="" style="endArrow=none;html=1;rounded=0;entryX=0.5;entryY=0;entryDx=0;entryDy=0;exitX=0.5;exitY=0;exitDx=0;exitDy=0;" edge="1" parent="1" source="GUtZIRkIJdK4X_Oaz5W3-8" target="GUtZIRkIJdK4X_Oaz5W3-223">
          <mxGeometry width="50" height="50" relative="1" as="geometry">
            <mxPoint x="600" y="450" as="sourcePoint" />
            <mxPoint x="650" y="400" as="targetPoint" />
            <Array as="points">
              <mxPoint x="220" y="300" />
              <mxPoint x="450" y="300" />
              <mxPoint x="450" y="20" />
              <mxPoint x="800" y="20" />
            </Array>
          </mxGeometry>
        </mxCell>
        <mxCell id="GUtZIRkIJdK4X_Oaz5W3-317" value="1" style="text;html=1;align=center;verticalAlign=middle;resizable=0;points=[];autosize=1;strokeColor=none;fillColor=none;" vertex="1" parent="1">
          <mxGeometry x="776" y="121.5" width="30" height="30" as="geometry" />
        </mxCell>
        <mxCell id="GUtZIRkIJdK4X_Oaz5W3-318" value="" style="endArrow=none;html=1;rounded=0;exitX=0.5;exitY=0;exitDx=0;exitDy=0;entryX=0.5;entryY=0;entryDx=0;entryDy=0;" edge="1" parent="1">
          <mxGeometry width="50" height="50" relative="1" as="geometry">
            <mxPoint x="200" y="470" as="sourcePoint" />
            <mxPoint x="750" y="490" as="targetPoint" />
            <Array as="points">
              <mxPoint x="230" y="320" />
              <mxPoint x="540" y="320" />
              <mxPoint x="540" y="370" />
              <mxPoint x="750" y="380" />
            </Array>
          </mxGeometry>
        </mxCell>
        <mxCell id="GUtZIRkIJdK4X_Oaz5W3-319" value="n" style="text;html=1;align=center;verticalAlign=middle;resizable=0;points=[];autosize=1;strokeColor=none;fillColor=none;" vertex="1" parent="1">
          <mxGeometry x="720" y="462" width="30" height="30" as="geometry" />
        </mxCell>
        <mxCell id="GUtZIRkIJdK4X_Oaz5W3-320" value="" style="endArrow=none;html=1;rounded=0;exitX=0.5;exitY=0;exitDx=0;exitDy=0;entryX=0.5;entryY=1;entryDx=0;entryDy=0;" edge="1" parent="1" source="GUtZIRkIJdK4X_Oaz5W3-121" target="GUtZIRkIJdK4X_Oaz5W3-210">
          <mxGeometry width="50" height="50" relative="1" as="geometry">
            <mxPoint x="530" y="990" as="sourcePoint" />
            <mxPoint x="580" y="940" as="targetPoint" />
            <Array as="points">
              <mxPoint x="250" y="1010" />
              <mxPoint x="667" y="1000" />
            </Array>
          </mxGeometry>
        </mxCell>
        <mxCell id="GUtZIRkIJdK4X_Oaz5W3-321" value="1" style="text;html=1;align=center;verticalAlign=middle;resizable=0;points=[];autosize=1;strokeColor=none;fillColor=none;" vertex="1" parent="1">
          <mxGeometry x="195" y="1121" width="30" height="30" as="geometry" />
        </mxCell>
        <mxCell id="GUtZIRkIJdK4X_Oaz5W3-322" value="1" style="text;html=1;align=center;verticalAlign=middle;resizable=0;points=[];autosize=1;strokeColor=none;fillColor=none;" vertex="1" parent="1">
          <mxGeometry x="660" y="897.25" width="30" height="30" as="geometry" />
        </mxCell>
        <mxCell id="GUtZIRkIJdK4X_Oaz5W3-323" value="" style="endArrow=none;html=1;rounded=0;entryX=0.466;entryY=-0.002;entryDx=0;entryDy=0;entryPerimeter=0;exitX=1;exitY=0.5;exitDx=0;exitDy=0;" edge="1" parent="1" source="GUtZIRkIJdK4X_Oaz5W3-121" target="GUtZIRkIJdK4X_Oaz5W3-182">
          <mxGeometry width="50" height="50" relative="1" as="geometry">
            <mxPoint x="510" y="1300" as="sourcePoint" />
            <mxPoint x="560" y="1250" as="targetPoint" />
            <Array as="points">
              <mxPoint x="653" y="1180" />
            </Array>
          </mxGeometry>
        </mxCell>
        <mxCell id="GUtZIRkIJdK4X_Oaz5W3-324" value="n" style="text;html=1;align=center;verticalAlign=middle;resizable=0;points=[];autosize=1;strokeColor=none;fillColor=none;" vertex="1" parent="1">
          <mxGeometry x="627.5" y="1188" width="30" height="30" as="geometry" />
        </mxCell>
        <mxCell id="GUtZIRkIJdK4X_Oaz5W3-325" value="1" style="text;html=1;align=center;verticalAlign=middle;resizable=0;points=[];autosize=1;strokeColor=none;fillColor=none;" vertex="1" parent="1">
          <mxGeometry x="245" y="1178" width="30" height="30" as="geometry" />
        </mxCell>
        <mxCell id="GUtZIRkIJdK4X_Oaz5W3-326" value="" style="endArrow=none;html=1;rounded=0;exitX=1;exitY=0.5;exitDx=0;exitDy=0;entryX=0.5;entryY=0;entryDx=0;entryDy=0;" edge="1" parent="1" source="GUtZIRkIJdK4X_Oaz5W3-59" target="GUtZIRkIJdK4X_Oaz5W3-237">
          <mxGeometry width="50" height="50" relative="1" as="geometry">
            <mxPoint x="920" y="600" as="sourcePoint" />
            <mxPoint x="970" y="550" as="targetPoint" />
            <Array as="points">
              <mxPoint x="1000" y="460" />
              <mxPoint x="1190" y="470" />
            </Array>
          </mxGeometry>
        </mxCell>
        <mxCell id="GUtZIRkIJdK4X_Oaz5W3-327" value="n" style="text;html=1;align=center;verticalAlign=middle;resizable=0;points=[];autosize=1;strokeColor=none;fillColor=none;" vertex="1" parent="1">
          <mxGeometry x="805" y="508" width="30" height="30" as="geometry" />
        </mxCell>
        <mxCell id="GUtZIRkIJdK4X_Oaz5W3-328" value="1" style="text;html=1;align=center;verticalAlign=middle;resizable=0;points=[];autosize=1;strokeColor=none;fillColor=none;" vertex="1" parent="1">
          <mxGeometry x="1200" y="561" width="30" height="30" as="geometry" />
        </mxCell>
        <mxCell id="GUtZIRkIJdK4X_Oaz5W3-329" value="" style="endArrow=none;html=1;rounded=0;entryX=0.5;entryY=1;entryDx=0;entryDy=0;exitX=0.5;exitY=0;exitDx=0;exitDy=0;" edge="1" parent="1" source="GUtZIRkIJdK4X_Oaz5W3-236" target="GUtZIRkIJdK4X_Oaz5W3-237">
          <mxGeometry width="50" height="50" relative="1" as="geometry">
            <mxPoint x="1100" y="950" as="sourcePoint" />
            <mxPoint x="1150" y="900" as="targetPoint" />
          </mxGeometry>
        </mxCell>
        <mxCell id="GUtZIRkIJdK4X_Oaz5W3-330" value="" style="endArrow=none;html=1;rounded=0;exitX=0.5;exitY=1;exitDx=0;exitDy=0;entryX=0.5;entryY=1;entryDx=0;entryDy=0;" edge="1" parent="1" source="GUtZIRkIJdK4X_Oaz5W3-121" target="GUtZIRkIJdK4X_Oaz5W3-236">
          <mxGeometry width="50" height="50" relative="1" as="geometry">
            <mxPoint x="730" y="1290" as="sourcePoint" />
            <mxPoint x="780" y="1240" as="targetPoint" />
            <Array as="points">
              <mxPoint x="250" y="1420" />
              <mxPoint x="1080" y="1390" />
            </Array>
          </mxGeometry>
        </mxCell>
        <mxCell id="GUtZIRkIJdK4X_Oaz5W3-331" value="" style="endArrow=none;html=1;rounded=0;exitX=0.5;exitY=1;exitDx=0;exitDy=0;entryX=0.5;entryY=1;entryDx=0;entryDy=0;" edge="1" parent="1" source="GUtZIRkIJdK4X_Oaz5W3-121" target="GUtZIRkIJdK4X_Oaz5W3-237">
          <mxGeometry width="50" height="50" relative="1" as="geometry">
            <mxPoint x="205" y="1221" as="sourcePoint" />
            <mxPoint x="1185" y="1131" as="targetPoint" />
            <Array as="points">
              <mxPoint x="190" y="1450" />
              <mxPoint x="1070" y="1430" />
              <mxPoint x="1370" y="1110" />
            </Array>
          </mxGeometry>
        </mxCell>
        <mxCell id="GUtZIRkIJdK4X_Oaz5W3-332" value="1" style="text;html=1;align=center;verticalAlign=middle;resizable=0;points=[];autosize=1;strokeColor=none;fillColor=none;" vertex="1" parent="1">
          <mxGeometry x="1060" y="1136" width="30" height="30" as="geometry" />
        </mxCell>
        <mxCell id="GUtZIRkIJdK4X_Oaz5W3-333" value="1" style="text;html=1;align=center;verticalAlign=middle;resizable=0;points=[];autosize=1;strokeColor=none;fillColor=none;" vertex="1" parent="1">
          <mxGeometry x="195" y="1208" width="30" height="30" as="geometry" />
        </mxCell>
        <mxCell id="GUtZIRkIJdK4X_Oaz5W3-334" value="1" style="text;html=1;align=center;verticalAlign=middle;resizable=0;points=[];autosize=1;strokeColor=none;fillColor=none;" vertex="1" parent="1">
          <mxGeometry x="172" y="1208" width="30" height="30" as="geometry" />
        </mxCell>
        <mxCell id="GUtZIRkIJdK4X_Oaz5W3-335" value="1" style="text;html=1;align=center;verticalAlign=middle;resizable=0;points=[];autosize=1;strokeColor=none;fillColor=none;" vertex="1" parent="1">
          <mxGeometry x="1205" y="648" width="30" height="30" as="geometry" />
        </mxCell>
        <mxCell id="GUtZIRkIJdK4X_Oaz5W3-336" value="1" style="text;html=1;align=center;verticalAlign=middle;resizable=0;points=[];autosize=1;strokeColor=none;fillColor=none;" vertex="1" parent="1">
          <mxGeometry x="1228" y="644" width="30" height="30" as="geometry" />
        </mxCell>
        <mxCell id="GUtZIRkIJdK4X_Oaz5W3-337" value="" style="endArrow=none;html=1;rounded=0;entryX=0.5;entryY=1;entryDx=0;entryDy=0;exitX=0.5;exitY=0;exitDx=0;exitDy=0;" edge="1" parent="1" source="GUtZIRkIJdK4X_Oaz5W3-237" target="GUtZIRkIJdK4X_Oaz5W3-285">
          <mxGeometry width="50" height="50" relative="1" as="geometry">
            <mxPoint x="950" y="630" as="sourcePoint" />
            <mxPoint x="1000" y="580" as="targetPoint" />
          </mxGeometry>
        </mxCell>
        <mxCell id="GUtZIRkIJdK4X_Oaz5W3-338" value="n" style="text;html=1;align=center;verticalAlign=middle;resizable=0;points=[];autosize=1;strokeColor=none;fillColor=none;" vertex="1" parent="1">
          <mxGeometry x="1325" y="268" width="30" height="30" as="geometry" />
        </mxCell>
        <mxCell id="GUtZIRkIJdK4X_Oaz5W3-339" value="1" style="text;html=1;align=center;verticalAlign=middle;resizable=0;points=[];autosize=1;strokeColor=none;fillColor=none;" vertex="1" parent="1">
          <mxGeometry x="1230" y="561" width="30" height="30" as="geometry" />
        </mxCell>
        <mxCell id="GUtZIRkIJdK4X_Oaz5W3-340" value="" style="endArrow=none;html=1;rounded=0;entryX=0.5;entryY=1;entryDx=0;entryDy=0;exitX=0.5;exitY=0;exitDx=0;exitDy=0;" edge="1" parent="1" source="GUtZIRkIJdK4X_Oaz5W3-237" target="GUtZIRkIJdK4X_Oaz5W3-223">
          <mxGeometry width="50" height="50" relative="1" as="geometry">
            <mxPoint x="1200" y="530" as="sourcePoint" />
            <mxPoint x="870" y="450" as="targetPoint" />
            <Array as="points">
              <mxPoint x="1230" y="370" />
              <mxPoint x="800" y="360" />
            </Array>
          </mxGeometry>
        </mxCell>
        <mxCell id="GUtZIRkIJdK4X_Oaz5W3-342" value="1" style="text;html=1;align=center;verticalAlign=middle;resizable=0;points=[];autosize=1;strokeColor=none;fillColor=none;" vertex="1" parent="1">
          <mxGeometry x="775" y="260.5" width="30" height="30" as="geometry" />
        </mxCell>
        <mxCell id="GUtZIRkIJdK4X_Oaz5W3-343" value="1" style="text;html=1;align=center;verticalAlign=middle;resizable=0;points=[];autosize=1;strokeColor=none;fillColor=none;" vertex="1" parent="1">
          <mxGeometry x="1208" y="528" width="30" height="30" as="geometry" />
        </mxCell>
        <mxCell id="GUtZIRkIJdK4X_Oaz5W3-344" value="1" style="text;html=1;align=center;verticalAlign=middle;resizable=0;points=[];autosize=1;strokeColor=none;fillColor=none;" vertex="1" parent="1">
          <mxGeometry x="1065" y="998" width="30" height="30" as="geometry" />
        </mxCell>
        <mxCell id="GUtZIRkIJdK4X_Oaz5W3-345" value="1" style="text;html=1;align=center;verticalAlign=middle;resizable=0;points=[];autosize=1;strokeColor=none;fillColor=none;" vertex="1" parent="1">
          <mxGeometry x="188" y="388" width="30" height="30" as="geometry" />
        </mxCell>
        <mxCell id="GUtZIRkIJdK4X_Oaz5W3-346" value="1" style="text;html=1;align=center;verticalAlign=middle;resizable=0;points=[];autosize=1;strokeColor=none;fillColor=none;" vertex="1" parent="1">
          <mxGeometry x="178" y="446" width="30" height="30" as="geometry" />
        </mxCell>
      </root>
    </mxGraphModel>
  </diagram>
</mxfile>
